HIERARCHY
ROOT Hips
{
	OFFSET 0.00000 0.00000 0.00000
	CHANNELS 6 Xposition Yposition Zposition Zrotation Yrotation Xrotation 
	JOINT LHipJoint
	{
		OFFSET 0 0 0
		CHANNELS 3 Zrotation Yrotation Xrotation
		JOINT LeftUpLeg
		{
			OFFSET 1.61024 -1.73873 0.75100
			CHANNELS 3 Zrotation Yrotation Xrotation
			JOINT LeftLeg
			{
				OFFSET 2.29819 -6.31424 0.00000
				CHANNELS 3 Zrotation Yrotation Xrotation
				JOINT LeftFoot
				{
					OFFSET 2.76618 -7.60002 0.00000
					CHANNELS 3 Zrotation Yrotation Xrotation
					JOINT LeftToeBase
					{
						OFFSET 0.16838 -0.46263 2.02361
						CHANNELS 3 Zrotation Yrotation Xrotation
						End Site
						{
							OFFSET 0.00000 -0.00000 1.04662
						}
					}
				}
			}
		}
	}
	JOINT RHipJoint
	{
		OFFSET 0 0 0
		CHANNELS 3 Zrotation Yrotation Xrotation
		JOINT RightUpLeg
		{
			OFFSET -1.46153 -1.73873 0.75100
			CHANNELS 3 Zrotation Yrotation Xrotation
			JOINT RightLeg
			{
				OFFSET -2.38373 -6.54924 0.00000
				CHANNELS 3 Zrotation Yrotation Xrotation
				JOINT RightFoot
				{
					OFFSET -2.80314 -7.70157 0.00000
					CHANNELS 3 Zrotation Yrotation Xrotation
					JOINT RightToeBase
					{
						OFFSET -0.16142 -0.44349 2.02101
						CHANNELS 3 Zrotation Yrotation Xrotation
						End Site
						{
							OFFSET -0.00000 -0.00000 1.04381
						}
					}
				}
			}
		}
	}
	JOINT LowerBack
	{
		OFFSET 0 0 0
		CHANNELS 3 Zrotation Yrotation Xrotation
		JOINT Spine
		{
			OFFSET -0.01629 1.66985 0.14750
			CHANNELS 3 Zrotation Yrotation Xrotation
			JOINT Spine1
			{
				OFFSET 0.02086 1.62378 0.20980
				CHANNELS 3 Zrotation Yrotation Xrotation
				JOINT Neck
				{
					OFFSET 0 0 0
					CHANNELS 3 Zrotation Yrotation Xrotation
					JOINT Neck1
					{
						OFFSET -0.05690 1.78719 0.08702
						CHANNELS 3 Zrotation Yrotation Xrotation
						JOINT Head
						{
							OFFSET 0.16035 1.73871 -0.38470
							CHANNELS 3 Zrotation Yrotation Xrotation
							End Site
							{
								OFFSET 0.05645 1.80914 -0.14081
							}
						}
					}
				}
				JOINT LeftShoulder
				{
					OFFSET 0 0 0
					CHANNELS 3 Zrotation Yrotation Xrotation
					JOINT LeftArm
					{
						OFFSET 2.83089 1.66494 -0.46008
						CHANNELS 3 Zrotation Yrotation Xrotation
						JOINT LeftForeArm
						{
							OFFSET 5.54893 -0.00000 -0.00000
							CHANNELS 3 Zrotation Yrotation Xrotation
							JOINT LeftHand
							{
								OFFSET 3.02898 -0.00000 -0.00000
								CHANNELS 3 Zrotation Yrotation Xrotation
								JOINT LeftFingerBase
								{
									OFFSET 0 0 0
									CHANNELS 3 Zrotation Yrotation Xrotation
									JOINT LeftHandIndex1
									{
										OFFSET 0.64095 -0.00000 -0.00000
										CHANNELS 3 Zrotation Yrotation Xrotation
										End Site
										{
											OFFSET 0.51675 -0.00000 -0.00000
										}
									}
								}
								JOINT LThumb
								{
									OFFSET 0 0 0
									CHANNELS 3 Zrotation Yrotation Xrotation
									End Site
									{
										OFFSET 0.52464 -0.00000 0.52464
									}
								}
							}
						}
					}
				}
				JOINT RightShoulder
				{
					OFFSET 0 0 0
					CHANNELS 3 Zrotation Yrotation Xrotation
					JOINT RightArm
					{
						OFFSET -2.84442 1.45761 -0.18088
						CHANNELS 3 Zrotation Yrotation Xrotation
						JOINT RightForeArm
						{
							OFFSET -5.35190 -0.00000 -0.00000
							CHANNELS 3 Zrotation Yrotation Xrotation
							JOINT RightHand
							{
								OFFSET -3.02531 -0.00000 -0.00000
								CHANNELS 3 Zrotation Yrotation Xrotation
								JOINT RightFingerBase
								{
									OFFSET 0 0 0
									CHANNELS 3 Zrotation Yrotation Xrotation
									JOINT RightHandIndex1
									{
										OFFSET -0.78389 -0.00000 -0.00000
										CHANNELS 3 Zrotation Yrotation Xrotation
										End Site
										{
											OFFSET -0.63199 -0.00000 -0.00000
										}
									}
								}
								JOINT RThumb
								{
									OFFSET 0 0 0
									CHANNELS 3 Zrotation Yrotation Xrotation
									End Site
									{
										OFFSET -0.64164 -0.00000 0.64164
									}
								}
							}
						}
					}
				}
			}
		}
	}
}
MOTION
Frames: 16
Frame Time: 0.0714286
0.00 0.00 0.00 0 0 0 0 0 0 -21 0 0 0 0 0 0 0 0 0 0 0 0 0 0 21 0 0 0 0 0 0 0 0 0 0 0 0 0 0 0 0 0 0 0 0 0 0 -16 0 0 21 0 0 11 0 0 0 -8 0 0 0 0 0 0 0 0 0 0 0 0 0 0 0 0 0 0 0 0 8 0 0 0 0 0 0 0 0 0 0 0 0 0 0 0 0 0
0.00 0.00 0.00 -177.9920 67.4182 -166.1350 0.0000 0.0000 0.0000 -9.6931 -28.8758 -5.6897 0.0799 1.8230 5.0167 -0.5853 13.5175 -6.8697 1.9447 -8.7499 -25.0161 0.0000 0.0000 0.0000 21.6456 7.8391 -11.1227 -0.8047 -5.7250 15.9885 0.2812 -20.0560 -26.1093 -0.0319 1.1537 -3.1718 0.5433 3.9904 0.8999 0.3823 5.8343 -8.5842 -0.4565 2.9966 -9.5564 -3.3068 3.6388 -12.5804 9.6286 4.1985 15.8785 4.0533 2.7664 6.6138 0.0000 0.0000 0.0000 -62.3973 -4.9374 54.8272 149.9375 -40.9469 -108.5494 -0.0000 0.0000 -10.0589 -30.2526 25.7872 -14.2371 -7.1250 0.0000 -0.0000 -55.1110 47.9593 -5.7060 0.0000 0.0000 0.0000 64.7028 25.3874 74.4987 -141.7008 47.0294 -102.8158 0.0000 -0.0000 -2.0229 10.5362 19.6864 3.5852 7.1250 -0.0000 -0.0000 24.4485 -11.1721 21.3447
0.00 0.00 0.00 -179.7210 60.5836 -167.4900 0.0000 0.0000 0.0000 -10.0620 -37.3377 -3.0440 0.0677 1.6781 4.6170 -0.6786 14.5729 -7.7811 1.9533 -8.7680 -25.0724 0.0000 0.0000 0.0000 21.8919 6.0411 -8.0357 -0.6177 -5.0300 13.9942 0.3059 -23.5566 -31.2069 -0.0038 -0.3969 1.0906 0.7513 3.5673 -4.4533 0.6954 5.8270 -11.7899 0.0056 3.2399 -10.0408 -4.1258 2.1946 -12.2699 8.4634 2.5447 19.1542 3.7757 1.9009 7.7430 -0.0000 -0.0000 0.0000 -59.3603 -19.0001 34.3312 153.2698 -37.9207 -110.6672 -0.0000 0.0000 -9.0776 -12.0542 28.5249 -5.8227 -7.1250 0.0000 -0.0000 -43.3674 53.0972 -10.1556 -0.0000 -0.0000 0.0000 61.8398 40.6421 63.3319 -150.3637 40.5796 -108.8277 0.0000 -0.0000 -19.6136 28.9430 12.0657 6.5940 7.1250 -0.0000 -0.0000 35.5548 -16.2891 30.9369
0.00 0.00 0.00 -178.5000 78.3232 -164.1190 0.0000 0.0000 0.0000 -14.1079 -25.6382 -4.5518 0.0386 1.2675 3.4851 -1.1720 19.5797 -13.5379 1.0876 -6.6279 -18.6176 0.0000 0.0000 0.0000 15.8481 11.8858 -12.4550 -0.7004 -5.3494 14.9079 0.3263 -16.2519 -19.5392 -0.5906 4.9201 -13.6808 -5.4790 -3.6529 -5.6090 2.7580 -4.0740 -11.7317 6.0220 -1.1215 -8.7257 -15.1641 -15.4290 0.3908 18.2024 -22.1845 8.5202 6.3031 -10.6619 6.2913 0.0000 0.0000 0.0000 -63.7978 -27.9950 54.1133 150.0469 -40.8532 -108.6211 -0.0000 0.0000 -23.4073 -25.5620 32.8624 -14.5495 -7.1250 0.0000 -0.0000 -58.4603 53.5754 -16.7397 0.0000 0.0000 0.0000 50.3588 44.1373 36.8447 -152.1107 39.0142 -109.9461 0.0000 -0.0000 -5.0788 23.5147 2.3230 1.0104 7.1250 -0.0000 -0.0000 35.6080 -25.9299 20.5362
0.00 0.00 0.00 -180.9740 114.7890 -167.0630 0.0000 0.0000 0.0000 -22.5350 10.0348 -8.3313 0.0000 0.0000 0.0000 0.1349 12.1311 -18.9382 0.1632 2.6026 7.1743 0.0000 0.0000 0.0000 10.2413 24.7042 -17.4424 -0.9163 -6.0991 17.0721 -0.3099 1.8017 -10.0419 -1.5524 7.8640 -22.3016 -5.9976 -5.9036 -4.6456 3.3924 -7.4616 -11.2879 7.0356 -2.9292 -8.1688 -14.1342 -15.2316 -0.0889 16.1580 -22.0328 10.2663 5.4956 -10.6362 6.5169 0.0000 -0.0000 0.0000 -61.1988 -30.6098 47.0106 148.9989 -41.7361 -107.9295 -0.0000 0.0000 -21.0824 -16.8648 34.3977 -9.7183 -7.1250 0.0000 -0.0000 -53.0841 56.3721 -18.3502 0.0000 -0.0000 0.0000 49.1497 40.1435 38.4206 -151.9355 39.1755 -109.8356 0.0000 -0.0000 -11.7269 32.6895 4.1471 2.6571 7.1250 -0.0000 -0.0000 39.4115 -22.5441 28.8882
0.00 0.00 0.00 -188.3800 93.4072 -169.8610 0.0000 0.0000 0.0000 -14.4895 -16.1667 -17.8222 0.7407 5.4979 15.3344 -0.3667 16.2927 -19.1071 0.5374 -4.6969 -13.0462 0.0000 0.0000 0.0000 12.0615 19.0071 -22.1422 -1.4480 -7.6066 21.5255 -0.3508 -8.8004 -17.6599 -0.8654 5.9317 -16.5864 -2.6522 -0.9860 -2.9457 0.1410 -0.9645 -10.5063 1.6484 -0.0612 -9.3896 -5.5033 -3.4053 -10.0270 7.5514 -4.8526 14.8911 2.9098 -2.0104 6.4935 -0.0000 -0.0000 0.0000 -52.0680 -43.1600 32.1981 153.0579 -38.1239 -110.5366 -0.0000 0.0000 -30.7076 -22.8488 33.9255 -13.2338 -7.1250 0.0000 -0.0000 -57.4689 54.8033 -18.2462 -0.0000 -0.0000 0.0000 46.3159 48.8156 27.6222 -153.0991 38.0846 -110.5621 0.0000 -0.0000 -21.3106 16.3367 3.9502 1.1568 7.1250 -0.0000 -0.0000 30.8990 -25.2231 17.3348
0.00 0.00 0.00 -179.6390 87.1056 -159.5000 0.0000 0.0000 0.0000 -11.3160 -17.2226 -34.3032 3.2345 11.0652 32.5002 0.4288 7.1818 -17.0429 1.2006 -6.9521 -19.5735 0.0000 0.0000 0.0000 11.5293 16.0816 -36.0441 -4.0978 -12.2894 36.7637 -0.7878 -7.4259 -21.0579 -0.6391 5.1146 -14.2358 -3.3273 -0.9158 3.4164 -0.5887 -1.3891 -7.6177 1.3860 -0.3702 -9.9324 -4.8690 -2.9455 -10.0337 6.8951 -4.1451 12.9661 2.6457 -1.7213 5.8121 -0.0000 -0.0000 0.0000 -52.9448 -45.9975 33.3195 153.1451 -38.0405 -110.5904 -0.0000 0.0000 -27.9495 -20.3716 33.3760 -11.5456 -7.1250 0.0000 -0.0000 -54.8984 54.9535 -17.1996 -0.0000 -0.0000 0.0000 42.4125 48.8177 24.1158 -154.0374 37.1718 -111.1349 0.0000 -0.0000 -19.1109 10.7398 7.5156 1.4211 7.1250 -0.0000 -0.0000 26.5212 -22.3384 16.2290
0.00 0.00 0.00 -172.7680 81.0987 -150.6000 0.0000 0.0000 0.0000 -4.5542 -19.7452 -52.7232 7.4742 15.7186 50.6460 0.8964 0.6578 -18.1412 1.4694 -7.6604 -21.6872 0.0000 0.0000 0.0000 11.6882 13.8501 -52.4652 -8.4869 -16.4660 54.2982 -1.2531 -6.5051 -24.4146 -1.2991 7.2209 -20.3715 -2.1345 -1.1015 15.3232 0.0927 -1.9017 -3.8998 1.8086 -0.7138 -12.9031 -5.8043 -2.7994 -10.4938 7.4862 -3.7551 10.1746 3.0025 -1.5699 5.0278 -0.0000 0.0000 0.0000 -54.4817 -41.4144 34.7901 153.9743 -37.2341 -111.0968 -0.0000 0.0000 -26.0234 -17.6711 29.9708 -9.0429 -7.1250 0.0000 -0.0000 -49.3600 53.1287 -12.2293 -0.0000 0.0000 0.0000 43.4912 46.5128 25.4510 -156.3461 34.7961 -112.4919 0.0000 -0.0000 -17.4435 13.4287 9.6370 2.2889 7.1250 -0.0000 -0.0000 27.7807 -20.2895 18.7306
0.00 0.00 0.00 -169.3790 78.4414 -138.2360 0.0000 0.0000 0.0000 4.8015 -19.7517 -78.8437 12.4797 18.5861 67.5014 0.9946 -1.9692 -18.2901 1.6463 -8.0867 -22.9779 0.0000 0.0000 0.0000 6.1911 17.9010 -75.5644 -13.4951 -18.9537 70.6565 -1.5176 -7.6750 -27.1576 -0.9260 6.1304 -17.1631 -0.8807 -0.5781 19.5334 0.5061 -0.9033 -2.2647 1.3483 -0.3159 -13.5686 -5.3439 -3.3892 -9.3339 8.3747 -4.0877 -0.6878 3.5232 -1.8159 1.7572 0.0000 0.0000 0.0000 -52.3470 -42.2708 32.8952 154.9070 -36.2989 -111.6551 -0.0000 0.0000 -27.2502 -18.7807 29.5035 -9.5070 -7.1250 0.0000 -0.0000 -49.8444 52.5874 -11.6494 0.0000 0.0000 0.0000 39.2333 47.1088 23.2325 -157.9133 33.0749 -113.3669 0.0000 -0.0000 -14.4845 11.8601 10.9030 2.2747 7.1250 -0.0000 -0.0000 26.5718 -19.2080 18.4332
0.00 0.00 0.00 -175.8390 78.9098 -134.0700 0.0000 0.0000 0.0000 9.1378 -13.9698 -106.2755 17.6588 19.8681 83.1404 0.8284 -8.2111 -16.3727 1.3870 -7.4515 -21.0599 0.0000 0.0000 0.0000 -2.8295 17.0344 -103.7492 -19.4918 -19.9938 88.5139 -1.5455 -7.4260 -27.1935 -1.0697 6.5750 -18.4621 -3.1143 -0.3381 33.2275 -0.3499 -1.4970 -0.1616 1.9449 -0.2969 -17.4773 -5.9347 -3.5317 -6.6135 11.1885 -3.0256 -13.7983 4.4000 -1.3443 -2.6879 -0.0000 0.0000 0.0000 -41.7288 -46.3836 21.1345 156.0678 -35.0925 -112.3325 -0.0000 0.0000 -31.6984 -19.7343 28.6510 -9.7594 -7.1250 0.0000 -0.0000 -49.8564 51.8019 -10.5377 -0.0000 0.0000 0.0000 28.4674 53.9392 11.9923 -157.1009 33.9783 -112.9182 0.0000 -0.0000 -17.4238 9.1343 13.6716 2.1764 7.1250 -0.0000 -0.0000 24.4270 -16.7481 18.0900
0.00 0.00 0.00 -153.5380 103.8500 -104.3090 0.0000 0.0000 0.0000 2.3166 -25.1481 -113.8225 17.7733 19.8807 83.4772 0.2293 16.7933 -25.8113 0.4315 -4.2154 -11.6835 0.0000 0.0000 0.0000 -21.0837 7.6670 -113.7799 -16.9116 -19.7698 80.9367 -0.8736 6.6635 -16.6787 -2.4922 9.8237 -28.4076 3.2748 -4.4997 42.0904 5.8726 -2.1846 7.9933 5.5786 -0.7322 -11.0415 -4.0356 -8.5046 -3.3407 20.8444 -8.7125 -20.2840 7.4346 -5.3196 -4.1736 -0.0000 0.0000 0.0000 -24.7685 -56.6407 2.6858 154.5000 -36.7107 -111.4130 -0.0000 0.0000 -19.6965 -27.5457 31.1053 -15.0805 -7.1250 0.0000 -0.0000 -58.1591 52.0582 -14.0081 -0.0000 0.0000 0.0000 25.1850 56.2297 -1.7000 -153.6829 37.5201 -110.9199 0.0000 -0.0000 -0.3347 7.0249 15.1375 1.8431 7.1250 -0.0000 -0.0000 22.9180 -15.4162 17.4802
0.00 0.00 0.00 -177.6310 121.3100 -126.2370 0.0000 0.0000 0.0000 2.2369 -22.6487 -112.5534 18.5513 19.9496 85.7610 -0.2709 25.9482 -34.9225 0.0009 -0.1911 -0.5251 0.0000 0.0000 0.0000 -17.1209 11.3324 -116.1974 -14.3039 -19.2036 73.1303 1.3264 22.9353 -3.7639 -0.6696 5.2329 -14.5740 0.0004 -2.8412 44.8979 4.2063 -1.9939 8.0768 5.4613 -0.6572 -11.7505 -5.2378 -7.1128 -2.1723 19.5652 -6.7965 -22.2496 7.4346 -4.3609 -5.2394 0.0000 0.0000 0.0000 -29.5896 -56.4729 4.9251 157.1823 -33.8889 -112.9636 -0.0000 0.0000 -24.1510 -23.0371 29.3083 -11.7587 -7.1250 0.0000 -0.0000 -53.0403 51.6731 -11.4086 0.0000 0.0000 0.0000 28.7223 53.7280 2.1999 -155.6035 35.5808 -112.0639 0.0000 -0.0000 -2.8229 19.3809 15.1823 5.2637 7.1250 -0.0000 -0.0000 30.1148 -14.8530 25.2226
0.00 0.00 0.00 -180.9000 117.2160 -138.3850 0.0000 0.0000 0.0000 -7.1360 -18.9244 -90.2445 13.6913 19.0177 71.2595 0.3071 19.6027 -29.9570 0.2097 -2.9484 -8.1352 0.0000 0.0000 0.0000 -12.5961 17.0449 -93.9452 -10.0715 -17.4499 59.7272 0.5678 18.3194 -6.8736 -1.2929 7.2043 -20.3221 2.9399 -4.5358 31.7328 2.6830 -3.9314 8.0459 2.7811 -1.6630 -8.1830 -5.9511 -6.8778 3.7619 25.9995 -3.6001 -30.8174 11.0849 -3.7525 -9.3798 0.0000 -0.0000 0.0000 -43.6667 -45.7102 29.0896 156.2318 -34.9182 -112.4265 -0.0000 0.0000 -22.3834 -27.9438 29.0510 -14.4443 -7.1250 0.0000 -0.0000 -56.4615 50.6182 -10.8398 0.0000 -0.0000 0.0000 57.0659 44.1889 30.8302 -155.2473 35.9502 -111.8557 0.0000 -0.0000 -5.7563 10.9265 23.3081 4.3681 7.1250 -0.0000 -0.0000 24.2621 -7.8123 22.9623
0.00 0.00 0.00 -179.6060 121.5920 -147.0540 0.0000 0.0000 0.0000 -19.7768 -8.7779 -66.5041 8.2896 16.3282 53.5993 0.7017 15.1621 -27.6095 0.1881 -2.7931 -7.7033 0.0000 0.0000 0.0000 -7.5451 21.9152 -69.9447 -5.6514 -14.0818 43.5662 0.5658 16.6307 -4.7375 -1.2880 7.1912 -20.2830 0.1978 -6.1008 20.4614 0.3429 -7.6896 3.8860 2.2444 -3.6225 -7.1060 -5.5381 -6.5669 2.5121 25.9775 -3.2954 -28.7316 10.6330 -3.4253 -8.4661 -0.0000 0.0000 0.0000 -53.2428 -33.0957 41.0352 155.7242 -35.4545 -112.1341 -0.0000 0.0000 -19.3430 -29.2120 29.4846 -15.3875 -7.1250 0.0000 -0.0000 -57.7759 50.6842 -11.4164 -0.0000 0.0000 0.0000 65.6299 33.9312 44.8973 -154.2862 36.9247 -111.2849 0.0000 -0.0000 -5.1577 11.3451 21.9780 4.2942 7.1250 -0.0000 -0.0000 24.6395 -9.0390 22.7378
0.00 0.00 0.00 -175.3580 122.8780 -150.1980 0.0000 0.0000 0.0000 -26.7015 -1.7518 -46.8145 3.9598 12.1068 36.1107 0.4138 14.3592 -24.4158 0.1869 -2.7845 -7.6792 0.0000 0.0000 0.0000 -5.4353 24.3887 -50.2410 -3.1289 -10.9009 31.9464 0.1666 12.5205 -6.3503 -1.6367 8.0644 -22.9097 -0.7650 -7.1251 13.3367 -0.1717 -9.6175 -1.2919 2.2080 -4.6006 -8.7166 -6.4468 -6.4950 -0.7627 23.0380 -5.6501 -18.4056 8.6406 -3.6629 -4.2294 0.0000 -0.0000 0.0000 -58.1824 -23.1944 47.9634 151.8330 -39.2695 -109.7708 -0.0000 0.0000 -20.3316 -27.6008 28.4660 -13.9925 -7.1250 0.0000 -0.0000 -55.6726 50.2798 -9.9910 0.0000 -0.0000 0.0000 68.9210 25.9334 53.6919 -150.2856 40.6473 -108.7769 0.0000 -0.0000 -3.3760 11.8008 20.6485 4.2136 7.1250 -0.0000 -0.0000 25.0526 -10.2597 22.5226
0.00 0.00 0.00 -174.3460 122.6840 -153.7200 0.0000 0.0000 0.0000 -27.4115 -0.7697 -28.4227 1.2028 6.9583 19.5920 -0.3061 18.9931 -24.2347 0.1112 -2.1505 -5.9217 0.0000 0.0000 0.0000 -3.2878 29.1983 -34.3297 -1.6090 -7.9991 22.7112 -0.2236 4.4020 -8.4926 -1.5954 7.9668 -22.6133 -0.2098 -8.1684 6.8960 0.0293 -11.0249 -5.3906 1.7921 -5.3401 -9.5201 -6.1115 -6.4635 -4.5225 17.5617 -8.0089 -5.0042 6.1179 -3.9439 0.3184 0.0000 -0.0000 0.0000 -59.1863 -17.0339 52.0863 148.2565 -42.3417 -107.4323 -0.0000 0.0000 -20.6643 -28.0425 28.4412 -14.2347 -7.1250 0.0000 -0.0000 -55.9654 50.1854 -9.9186 0.0000 -0.0000 0.0000 69.2329 22.5476 58.2769 -145.4214 44.5089 -105.4828 0.0000 -0.0000 -3.2700 14.8525 19.5062 5.0603 7.1250 -0.0000 -0.0000 26.9106 -11.2088 24.0664
